<svg width="225" height="225" viewBox="0 0 225 225" fill="none" xmlns="http://www.w3.org/2000/svg">
<rect width="225" height="225" rx="25" fill="#132180"/>
<path d="M59 145.857L59.7868 145.143L114.86 94.4286L118.007 92.2857L119.581 90.1429V87.2857V85.8571L118.794 85.1429L88.8971 58L85.75 55.1429V51.5714V50.1429L87.3235 48.7143L88.8971 48H112.5H121.941L162.853 84.4286L166 88L165.213 90.1429L155.772 98.7143L143.971 109.429L126.662 125.857L110.926 140.143L102.272 148L96.7647 153H95.1912H66.8676L63.7206 152.286L61.3603 151.571C59.4721 151 59.5245 150.857 59.7868 150.857L59 149.429V145.857Z" fill="#37B7DC"/>
<path d="M59 77.42V74.5667V73.8533L60.5704 72.4267L62.1407 71.7133C63.397 71.1427 83.6025 71 93.5481 71L95.9037 71.7133L135.948 107.38L163.43 132.347L165 133.773V136.627L164.215 138.053L128.881 170.867L121.815 177.287L118.674 178H91.9778H87.2667L82.5556 174.433V172.293L83.3407 170.867L116.319 141.62L120.244 137.34L119.459 133.773L115.533 129.493L90.4074 106.667L70.7778 88.8333L62.1407 80.9867L59.7852 78.8467L59 77.42Z" fill="#1A3EEA"/>
<path d="M119 133.5L95 111.5L117.5 92L141.5 111.5L119 133.5Z" fill="white"/>
</svg>
